<?xml version="1.0" encoding="utf-8"?><svg xmlns="http://www.w3.org/2000/svg" xmlns:xlink="http://www.w3.org/1999/xlink"><symbol viewBox="-7 -7 30 30" id="dribbble" xmlns="http://www.w3.org/2000/svg"><defs><style>.acls-1{fill:#95e1d3;fill-rule:evenodd}</style></defs><path id="adribbble" class="acls-1" d="M638.837 9782.4a7.9 7.9 0 0 0-.466-1.5 8.22 8.22 0 0 0-.738-1.36 8.093 8.093 0 0 0-.976-1.18 8.443 8.443 0 0 0-1.184-.98 7.971 7.971 0 0 0-8.947 0 8.434 8.434 0 0 0-1.183.98 8.093 8.093 0 0 0-.976 1.18 8.22 8.22 0 0 0-.738 1.36 7.9 7.9 0 0 0-.467 1.5 8.131 8.131 0 0 0 0 3.23 7.9 7.9 0 0 0 .467 1.5 8.22 8.22 0 0 0 .738 1.36 8.093 8.093 0 0 0 .976 1.18 8.434 8.434 0 0 0 1.183.98 7.971 7.971 0 0 0 8.947 0 8.443 8.443 0 0 0 1.184-.98 8.093 8.093 0 0 0 .976-1.18 8.22 8.22 0 0 0 .738-1.36 7.9 7.9 0 0 0 .466-1.5 8.082 8.082 0 0 0 0-3.23zm-1.007 1.55a15.962 15.962 0 0 0-4.759-.23 20.156 20.156 0 0 0-.601-1.34 8.874 8.874 0 0 0 3.807-2.7 6.794 6.794 0 0 1 1.553 4.27zm-2.317-5.06a7.451 7.451 0 0 1-3.569 2.47 34.349 34.349 0 0 0-2.554-3.98 6.581 6.581 0 0 1 1.61-.2 6.812 6.812 0 0 1 4.513 1.71zm-6.149-1.51a.039.039 0 0 0-.02.01.022.022 0 0 1 .02-.01zm-1.279.46a40.568 40.568 0 0 1 2.537 3.93 25.7 25.7 0 0 1-6.308.84 6.831 6.831 0 0 1 3.771-4.77zm-3.917 6.17v-.21a25.209 25.209 0 0 0 7.015-.97c.2.38.383.77.554 1.16a2.662 2.662 0 0 0-.269.08 10.8 10.8 0 0 0-5.557 4.51 6.807 6.807 0 0 1-1.743-4.57zm6.832 6.84a6.8 6.8 0 0 1-4.352-1.57l.153.12a9.25 9.25 0 0 1 5.362-4.27c.015 0 .03-.01.045-.01a28.411 28.411 0 0 1 1.459 5.19 6.951 6.951 0 0 1-2.667.54zm3.818-1.17a29.625 29.625 0 0 0-1.33-4.88 9.871 9.871 0 0 1 4.258.3 6.827 6.827 0 0 1-2.928 4.58z" transform="translate(-623 -9776)"/></symbol><symbol viewBox="-7 -7 21.5 30.03" id="facebook" xmlns="http://www.w3.org/2000/svg"><defs><style>.bcls-1{fill:#95e1d3;fill-rule:evenodd}</style></defs><path id="bfacebook" class="bcls-1" d="M454.993 9776.01v2.58s-1.9-.19-2.374.54a7.322 7.322 0 0 0-.128 2.4h2.518c-.213.98-.365 1.64-.522 2.48h-2.01v8.01h-3.489v-7.97H447.5v-2.52h1.468c.075-1.84.1-3.67 1.018-4.6 1.032-1.04 2.014-.92 5.007-.92z" transform="translate(-447.5 -9776)"/></symbol><symbol viewBox="-7 -7 30 27.78" id="google" xmlns="http://www.w3.org/2000/svg"><defs><style>.ccls-1{fill:#95e1d3;fill-rule:evenodd}</style></defs><path id="cgoogle_plus" data-name="google plus" class="ccls-1" d="M576.5 9780.72v2.44h-1v-2.44H573v-1h2.5v-2.44h1v2.44h2.5v1h-2.5zm-6.915-2.47a2.55 2.55 0 0 1 1.408 2.33 2.721 2.721 0 0 1-1.239 2.1 1.356 1.356 0 0 0-.81 1.18 2.684 2.684 0 0 0 1.111 1.29 2.866 2.866 0 0 1 1.444 2.7c0 1.49-1.444 3.17-4.116 3.17-2.344 0-4.383-1.12-4.383-2.62 0-1.52 1.866-2.99 4.209-2.99.256 0 .49-.01.732-.01a1.621 1.621 0 0 1-.574-1.15 1.774 1.774 0 0 1 .213-.79c-.127.01-.257-.01-.391-.01a3.059 3.059 0 0 1-3.214-3.05c0-1.64 1.781-3.14 3.673-3.14h4.22l-.945.99h-1.338zm-1.929 7.55c-1.62-.02-3.071.97-3.071 2.15 0 1.21 1.17 2.1 2.789 2.1 2.277 0 3.071-.82 3.071-2.03a1.8 1.8 0 0 0-.052-.43c-.178-.69-.808-1.02-1.688-1.62a3.209 3.209 0 0 0-1.049-.17zm1.82-5.2a2.813 2.813 0 0 0-2.356-2.56c-1.087-.03-1.816 1.04-1.628 2.44a2.827 2.827 0 0 0 2.308 2.6c1.087.03 1.863-1.08 1.676-2.48z" transform="translate(-563 -9777.25)"/></symbol><symbol viewBox="-7 -7 30 30" id="instagram" xmlns="http://www.w3.org/2000/svg"><defs><style>.dcls-1{fill:#95e1d3;fill-rule:evenodd}</style></defs><path id="dinstagram" class="dcls-1" d="M517 9792.01h-12a1.994 1.994 0 0 1-2-1.99v-12a2 2 0 0 1 2-2.01h12a2 2 0 0 1 2 2.01v12a1.994 1.994 0 0 1-2 1.99zm-6-11.1a3.1 3.1 0 0 0-2.811 1.8.177.177 0 0 1-.014.04 2.082 2.082 0 0 0-.08.2.867.867 0 0 0-.036.1c-.023.07-.042.14-.059.21a1.839 1.839 0 0 0-.064.33c0 .03-.011.06-.015.09-.011.11-.018.22-.018.33a3.1 3.1 0 1 0 6.2 0c0-.11-.007-.22-.018-.33 0-.03-.01-.06-.015-.09a1.839 1.839 0 0 0-.064-.33 3.296 3.296 0 0 0-.059-.21.867.867 0 0 0-.036-.1 2.082 2.082 0 0 0-.08-.2.177.177 0 0 1-.014-.04 3.1 3.1 0 0 0-2.817-1.8zm6.2-2.29a.8.8 0 0 0-.8-.8h-1.6a.8.8 0 0 0-.8.8v1.6a.793.793 0 0 0 .8.79h1.6a.793.793 0 0 0 .8-.79v-1.6zm0 4.09h-1.475a4.9 4.9 0 1 1-9.45 0H504.8v6.71a.793.793 0 0 0 .8.79h10.8a.793.793 0 0 0 .8-.79v-6.71z" transform="translate(-503 -9776)"/></symbol><symbol viewBox="-7 -7 26.25 30" id="pinterest" xmlns="http://www.w3.org/2000/svg"><defs><style>.ecls-1{fill:#95e1d3;fill-rule:evenodd}</style></defs><path id="epinterest" class="ecls-1" d="M539.844 9786.42c-.131.52-.262 1.07-.4 1.6a12.462 12.462 0 0 1-.449 1.55 7.975 7.975 0 0 1-1.277 2.2c-.359.42-.283.25-.391.23-.083-.02-.09-.1-.106-.22a12.065 12.065 0 0 1 0-2.09 11.384 11.384 0 0 1 .367-2.17c.3-1.29.592-2.55.9-3.85a.843.843 0 0 0 .057-.28 3.931 3.931 0 0 1-.268-1.06 3.341 3.341 0 0 1 .087-1.21 2 2 0 0 1 1.184-1.46 1.326 1.326 0 0 1 1.083.08 1.155 1.155 0 0 1 .542.78 2.789 2.789 0 0 1-.049 1.18c-.167.76-.387 1.33-.586 2.07a2.253 2.253 0 0 0-.118 1.13 1.34 1.34 0 0 0 .529.8 1.535 1.535 0 0 0 1.016.28 2.237 2.237 0 0 0 1.657-.98 5.8 5.8 0 0 0 1.047-2.93 7.165 7.165 0 0 0 .043-1.26 3.464 3.464 0 0 0-.7-1.95 3.3 3.3 0 0 0-1.57-1.06 5.039 5.039 0 0 0-2.342-.15 4.148 4.148 0 0 0-3.072 2.21 4.412 4.412 0 0 0-.523 2.13 2.732 2.732 0 0 0 .424 1.56c.083.13.205.23.286.38a1.058 1.058 0 0 1-.075.72c-.068.27-.076.64-.386.64a.966.966 0 0 1-.4-.15 3.193 3.193 0 0 1-1.514-2.33 5.607 5.607 0 0 1 0-2.03 5.771 5.771 0 0 1 2.747-3.84 6.6 6.6 0 0 1 2.442-.84c.318-.05.647-.06 1-.08a6.136 6.136 0 0 1 2.7.5 5.549 5.549 0 0 1 1.863 1.35 5.711 5.711 0 0 1 1.395 3.49 8.506 8.506 0 0 1-.193 1.48 5.829 5.829 0 0 1-2.4 4.04 4.386 4.386 0 0 1-1.1.51 3.936 3.936 0 0 1-1.4.17 2.849 2.849 0 0 1-1.239-.36 2.01 2.01 0 0 1-.811-.78z" transform="translate(-534.75 -9776.03)"/></symbol><symbol viewBox="-7 -7 24 30.03" id="tumblr" xmlns="http://www.w3.org/2000/svg"><defs><style>.fcls-1{fill:#95e1d3;fill-rule:evenodd}</style></defs><path id="ftumblr" class="fcls-1" d="M666.009 9791.15a9.526 9.526 0 0 1-1.849.67 7.785 7.785 0 0 1-1.789.2 4.728 4.728 0 0 1-1.718-.28 4.1 4.1 0 0 1-1.431-.79 2.892 2.892 0 0 1-.823-1.09 4.784 4.784 0 0 1-.228-1.68v-5.61h-2.164v-2.27a5.566 5.566 0 0 0 1.8-.88 4.389 4.389 0 0 0 1.075-1.37 6.3 6.3 0 0 0 .558-2.04h2.26v3.7h3.682v2.86H661.7v4.1a7.024 7.024 0 0 0 .086 1.73 1.494 1.494 0 0 0 .607.69 2.32 2.32 0 0 0 1.209.32 4.31 4.31 0 0 0 2.406-.79v2.53z" transform="translate(-656 -9776)"/></symbol><symbol viewBox="-7 -7 30 27" id="twitter" xmlns="http://www.w3.org/2000/svg"><defs><style>.gcls-1{fill:#95e1d3;fill-rule:evenodd}</style></defs><path id="gtwitter" class="gcls-1" d="M483.883 9777.52a3.343 3.343 0 0 1 2.594 1.03 5.48 5.48 0 0 0 1.682-.57c.136-.08.272-.15.409-.22a3.349 3.349 0 0 1-1.066 1.54 1.562 1.562 0 0 1-.36.25v.01a6.37 6.37 0 0 0 1.858-.5 5.263 5.263 0 0 1-1.113 1.28c-.171.14-.342.27-.513.41a9.429 9.429 0 0 1-.152 2.11 9.172 9.172 0 0 1-6.43 7.25 9.78 9.78 0 0 1-4.645.2 12.622 12.622 0 0 1-1.93-.63 8.359 8.359 0 0 1-.929-.48l-.288-.18a5.155 5.155 0 0 0 1.049.04c.323-.05.639-.04.937-.1a7 7 0 0 0 1.97-.71 3.459 3.459 0 0 0 .889-.59 2.867 2.867 0 0 1-.977-.17 3.32 3.32 0 0 1-2.082-2.1 3.225 3.225 0 0 0 1.465-.07 2.313 2.313 0 0 1-1.073-.43 3.15 3.15 0 0 1-1.545-2.81c.112.06.224.11.336.16a3.43 3.43 0 0 0 .689.19.846.846 0 0 0 .448.04h-.016c-.165-.19-.435-.32-.6-.52a3.356 3.356 0 0 1-.736-2.98 3.825 3.825 0 0 1 .352-.86.015.015 0 0 0 .016.01 2.144 2.144 0 0 0 .3.35 6.58 6.58 0 0 0 .977.93 9.684 9.684 0 0 0 4.012 1.94 6.152 6.152 0 0 0 1.474.19 3.043 3.043 0 0 1 .016-1.54 3.214 3.214 0 0 1 1.858-2.2 3.949 3.949 0 0 1 .728-.23c.129-.01.262-.03.396-.04z" transform="translate(-473 -9777.5)"/></symbol><symbol viewBox="-7 -7 30 25" id="youtube" xmlns="http://www.w3.org/2000/svg"><defs><style>.hcls-1{fill:#95e1d3;fill-rule:evenodd}</style></defs><path id="hyoutube" class="hcls-1" d="M606.537 9778.52h-10.654c-1.358 0-2.883.91-2.883 2.24v6.62c0 1.33 1.525 2.14 2.883 2.14h10.654a2.223 2.223 0 0 0 2.459-2.14v-6.62a2.3 2.3 0 0 0-2.459-2.24zm-6.573 8.05l-.032-5.04 3.508 2.54z" transform="translate(-593 -9778.53)"/></symbol></svg>